<svg width="14" height="14" viewBox="0 0 14 14" fill="none" xmlns="http://www.w3.org/2000/svg">
<path opacity="0.4" d="M9.93864 11.2096H9.40918V11.0772C9.40918 10.4948 8.93266 10.0183 8.35025 10.0183H7.15896V8.80585C7.02659 8.82173 6.89423 8.82703 6.76186 8.82703C6.6295 8.82703 6.49713 8.82173 6.36476 8.80585V10.0183H5.17347C4.59106 10.0183 4.11455 10.4948 4.11455 11.0772V11.2096H3.58509C3.36801 11.2096 3.18799 11.3896 3.18799 11.6067C3.18799 11.8238 3.36801 12.0038 3.58509 12.0038H9.93864C10.1557 12.0038 10.3357 11.8238 10.3357 11.6067C10.3357 11.3896 10.1557 11.2096 9.93864 11.2096Z" fill="#072AC8"/>
<path opacity="0.4" d="M3.33069 6.51856C2.98125 6.3862 2.67416 6.16912 2.43061 5.92557C1.93821 5.38022 1.61523 4.72898 1.61523 3.96655C1.61523 3.20413 2.21353 2.60583 2.97595 2.60583H3.27245C3.13479 2.88645 3.05537 3.19883 3.05537 3.53239V5.12078C3.05537 5.61848 3.15068 6.0897 3.33069 6.51856Z" fill="#072AC8"/>
<path opacity="0.4" d="M11.9083 3.96655C11.9083 4.72898 11.5854 5.38022 11.093 5.92557C10.8494 6.16912 10.5423 6.3862 10.1929 6.51856C10.3729 6.0897 10.4682 5.61848 10.4682 5.12078V3.53239C10.4682 3.19883 10.3888 2.88645 10.2511 2.60583H10.5476C11.31 2.60583 11.9083 3.20413 11.9083 3.96655Z" fill="#072AC8"/>
<path d="M8.35029 1.41449H5.17352C4.0034 1.41449 3.05566 2.36223 3.05566 3.53234V5.12073C3.05566 7.16975 4.71288 8.82697 6.7619 8.82697C8.81092 8.82697 10.4681 7.16975 10.4681 5.12073V3.53234C10.4681 2.36223 9.5204 1.41449 8.35029 1.41449ZM8.26558 4.82952L7.93731 5.23192C7.88436 5.29016 7.8473 5.40664 7.8526 5.48606L7.88436 6.00493C7.90554 6.32261 7.67787 6.48674 7.38137 6.37026L6.89956 6.17965C6.82544 6.15318 6.69837 6.15318 6.62424 6.17965L6.14243 6.37026C5.84593 6.48674 5.61826 6.32261 5.63944 6.00493L5.67121 5.48606C5.6765 5.40664 5.63944 5.29016 5.5865 5.23192L5.25823 4.82952C5.05174 4.58597 5.14175 4.31595 5.44884 4.23653L5.95183 4.10946C6.03124 4.08828 6.12655 4.01415 6.16891 3.94532L6.44952 3.51116C6.62424 3.24114 6.89956 3.24114 7.07429 3.51116L7.3549 3.94532C7.39726 4.01415 7.49256 4.08828 7.57198 4.10946L8.07497 4.23653C8.38206 4.31595 8.47207 4.58597 8.26558 4.82952Z" fill="#072AC8"/>
<path opacity="0.4" d="M8.26579 4.82954L7.93752 5.23193C7.88457 5.29017 7.84751 5.40665 7.85281 5.48607L7.88457 6.00494C7.90575 6.32262 7.67808 6.48675 7.38159 6.37027L6.89977 6.17967C6.82565 6.15319 6.69858 6.15319 6.62445 6.17967L6.14264 6.37027C5.84614 6.48675 5.61847 6.32262 5.63965 6.00494L5.67142 5.48607C5.67671 5.40665 5.63965 5.29017 5.58671 5.23193L5.25844 4.82954C5.05195 4.58598 5.14196 4.31596 5.44905 4.23654L5.95204 4.10947C6.03146 4.08829 6.12676 4.01416 6.16912 3.94533L6.44973 3.51117C6.62445 3.24115 6.89977 3.24115 7.0745 3.51117L7.35511 3.94533C7.39747 4.01416 7.49277 4.08829 7.57219 4.10947L8.07518 4.23654C8.38227 4.31596 8.47228 4.58598 8.26579 4.82954Z" fill="#072AC8"/>
</svg>
