<svg width="16" height="16" viewBox="0 0 16 16" fill="none" xmlns="http://www.w3.org/2000/svg">
<circle cx="8" cy="7.625" r="7.625" fill="black"/>
<path d="M11.89 4.23966L10.5963 4.89877L4.34934 8.08067C4.32821 7.91955 4.31758 7.75724 4.31752 7.59474C4.31926 6.27554 5.01926 5.05585 6.15743 4.38888C7.2956 3.7219 8.70182 3.70732 9.85357 4.35057L10.594 3.97329L10.7045 3.91692C9.32141 2.91305 7.49212 2.76979 5.96961 3.5461C4.4471 4.32242 3.48868 5.8871 3.48886 7.59611C3.48886 7.71187 3.49325 7.82717 3.50204 7.94203C3.52721 8.27459 3.35011 8.58972 3.05294 8.74114L2.66248 8.94023V9.86889L3.81205 9.28297V9.28297L4.18433 9.09296L4.55116 8.90614V8.90614L11.1368 5.5506L11.8768 5.17377L13.4064 4.39421V3.466L11.89 4.23966Z" fill="white"/>
<path d="M13.4064 5.32324L4.92526 9.64153L4.18524 10.0193L2.66248 10.7952V11.723L4.17479 10.9525L5.46846 10.2934L11.7218 7.10692C11.7429 7.2691 11.7536 7.43248 11.7536 7.59603C11.7528 8.91681 11.052 10.1382 9.91212 10.8054C8.77226 11.4726 7.36416 11.4857 6.21211 10.8397L6.16666 10.8638L5.36391 11.2729C6.74668 12.2768 8.57563 12.4204 10.0981 11.6447C11.6206 10.8689 12.5794 9.30479 12.58 7.59603C12.58 7.47921 12.5755 7.36239 12.5668 7.24693C12.5417 6.91449 12.7186 6.59946 13.0155 6.44782L13.4064 6.24872V5.32324Z" fill="white"/>
</svg>
