<svg width="32" height="32" viewBox="0 0 32 32" fill="none" xmlns="http://www.w3.org/2000/svg">
<g clip-path="url(#clip0_1934_10888)">
<path d="M32 16C32 24.8365 24.8365 32 16 32C7.1635 32 0 24.8365 0 16C0 16.0037 16 0.0018125 16 0C24.8365 0 32 7.1635 32 16Z" fill="#0052B4"/>
<path d="M15.957 16.0005H15.9999C15.9999 15.986 15.9999 15.9721 15.9999 15.9576C15.9857 15.972 15.9714 15.9863 15.957 16.0005Z" fill="#F0F0F0"/>
<path d="M15.9997 8.34891C15.9997 5.5336 15.9997 3.68879 15.9997 0.00109863H15.997C7.16167 0.00253613 -0.000320435 7.16535 -0.000320435 16.001H8.34749V11.3003L13.0482 16.001H15.9569C15.9712 15.9868 15.9855 15.9725 15.9997 15.9582C15.9997 14.8803 15.9997 13.9185 15.9997 13.0497L11.2989 8.34891H15.9997Z" fill="#F0F0F0"/>
<path d="M8.09485 2.08765C5.59241 3.51258 3.51203 5.59296 2.0871 8.0954V16.0007H6.26104V6.26165V6.26158H16.0002C16.0002 4.94515 16.0002 3.69102 16.0002 2.08765H8.09485Z" fill="#D80027"/>
<path d="M16.0005 14.0332L10.316 8.34866H8.3484C8.3484 8.3486 8.3484 8.34866 8.3484 8.34866L16.0005 16.0007H16.0005C16.0005 16.0007 16.0005 14.6442 16.0005 14.0332Z" fill="#D80027"/>
<path d="M9.65007 18.7819L10.5282 20.618L12.5111 20.1597L11.6231 21.991L13.2178 23.2556L11.2323 23.7031L11.2379 25.7384L9.65007 24.465L8.06232 25.7384L8.06788 23.7031L6.08238 23.2556L7.67707 21.991L6.78894 20.1597L8.77201 20.618L9.65007 18.7819Z" fill="#F0F0F0"/>
<path d="M23.9561 22.2605L24.3952 23.1786L25.3867 22.9494L24.9426 23.8651L25.74 24.4974L24.7472 24.7211L24.75 25.7387L23.9561 25.1021L23.1623 25.7387L23.165 24.7211L22.1723 24.4974L22.9696 23.8651L22.5256 22.9494L23.5171 23.1786L23.9561 22.2605Z" fill="#F0F0F0"/>
<path d="M19.8712 12.5219L20.3102 13.44L21.3017 13.2107L20.8577 14.1264L21.655 14.7587L20.6623 14.9825L20.665 16.0001L19.8712 15.3634L19.0773 16.0001L19.08 14.9825L18.0873 14.7587L18.8847 14.1264L18.4407 13.2107L19.4322 13.44L19.8712 12.5219Z" fill="#F0F0F0"/>
<path d="M23.9561 6.95679L24.3952 7.87491L25.3867 7.64573L24.9427 8.56141L25.7399 9.19366L24.7472 9.41748L24.75 10.4351L23.9561 9.79841L23.1623 10.4351L23.165 9.41748L22.1723 9.19366L22.9696 8.56141L22.5256 7.64573L23.5171 7.87491L23.9561 6.95679Z" fill="#F0F0F0"/>
<path d="M27.5229 11.1304L27.9619 12.0485L28.9534 11.8192L28.5094 12.7349L29.3067 13.3672L28.314 13.5911L28.3167 14.6086L27.5229 13.972L26.7291 14.6086L26.7317 13.5911L25.7391 13.3672L26.5364 12.7349L26.0924 11.8192L27.0838 12.0485L27.5229 11.1304Z" fill="#F0F0F0"/>
<path d="M24.9723 16.0004L25.3176 17.0632H26.4352L25.531 17.7202L25.8765 18.783L24.9723 18.1261L24.0682 18.783L24.4135 17.7202L23.5094 17.0632H24.6269L24.9723 16.0004Z" fill="#F0F0F0"/>
</g>
<defs>
<clipPath id="clip0_1934_10888">
<rect width="32" height="32" fill="white"/>
</clipPath>
</defs>
</svg>
