<svg width="32" height="32" viewBox="0 0 32 32" fill="none" xmlns="http://www.w3.org/2000/svg">
<g clip-path="url(#clip0_1934_10883)">
<path d="M16 32C24.8366 32 32 24.8366 32 16C32 7.16344 24.8366 0 16 0C7.16344 0 0 7.16344 0 16C0 24.8366 7.16344 32 16 32Z" fill="#F0F0F0"/>
<path d="M32.0011 16.0014C32.0011 9.65799 28.3095 4.17699 22.9576 1.58899V30.4137C28.3095 27.8257 32.0011 22.3447 32.0011 16.0014Z" fill="#D80027"/>
<path d="M0.000610352 16.0005C0.000610352 22.3439 3.69217 27.8249 9.04411 30.4129V1.58813C3.69217 4.17613 0.000610352 9.65713 0.000610352 16.0005Z" fill="#D80027"/>
<path d="M18.7834 18.0882L21.566 16.6969L20.1747 16.0013V14.61L17.3921 16.0013L18.7834 13.2187H17.3921L16.0008 11.1317L14.6095 13.2187H13.2181L14.6095 16.0013L11.8268 14.61V16.0013L10.4356 16.6969L13.2181 18.0882L12.5225 19.4795H15.3051V21.5665H16.6964V19.4795H19.479L18.7834 18.0882Z" fill="#D80027"/>
</g>
<defs>
<clipPath id="clip0_1934_10883">
<rect width="32" height="32" fill="white"/>
</clipPath>
</defs>
</svg>
