<svg width="32" height="32" viewBox="0 0 32 32" fill="none" xmlns="http://www.w3.org/2000/svg">
<g clip-path="url(#clip0_1934_10847)">
<path d="M16 32C24.8366 32 32 24.8366 32 16C32 7.16344 24.8366 0 16 0C7.16344 0 0 7.16344 0 16C0 24.8366 7.16344 32 16 32Z" fill="#F0F0F0"/>
<path d="M-0.000656128 16.0004C-0.000656128 22.8799 4.34134 28.7445 10.4342 31.0052V0.995605C4.34134 3.25623 -0.000656128 9.12098 -0.000656128 16.0004Z" fill="#6DA544"/>
<path d="M32 16.0004C32 9.12098 27.658 3.25623 21.5652 0.995605V31.0053C27.658 28.7445 32 22.8799 32 16.0004Z" fill="#6DA544"/>
</g>
<defs>
<clipPath id="clip0_1934_10847">
<rect width="32" height="32" fill="white"/>
</clipPath>
</defs>
</svg>
